<?xml version="1.0" standalone="no"?><!DOCTYPE svg PUBLIC "-//W3C//DTD SVG 1.1//EN" "http://www.w3.org/Graphics/SVG/1.1/DTD/svg11.dtd"><svg t="1548722408884" class="icon" style="" viewBox="0 0 1024 1024" version="1.1" xmlns="http://www.w3.org/2000/svg" p-id="1956" xmlns:xlink="http://www.w3.org/1999/xlink" width="200" height="200"><defs><style type="text/css"></style></defs><path d="M805.12 868.48c-8.32 0-16.64-3.2-22.4-9.6l-210.56-210.56c-12.8-12.8-12.8-32.64 0-45.44s32.64-12.8 45.44 0l210.56 210.56c12.8 12.8 12.8 32.64 0 45.44-6.4 6.4-14.72 9.6-23.04 9.6zM513.28 576c-8.32 0-16.64-3.2-22.4-9.6L201.6 277.76c-12.8-12.8-12.8-32.64 0-45.44s32.64-12.8 45.44 0l289.28 289.28c12.8 12.8 12.8 32.64 0 45.44-6.4 5.76-14.72 8.96-23.04 8.96z" fill="#515151" p-id="1957"></path><path d="M224 868.48c-8.32 0-16.64-3.2-22.4-9.6-12.8-12.8-12.8-32.64 0-45.44l581.76-581.76c12.8-12.8 32.64-12.8 45.44 0s12.8 32.64 0 45.44l-581.76 581.76c-7.04 6.4-14.72 9.6-23.04 9.6z" fill="#515151" p-id="1958"></path></svg>