<?xml version="1.0" standalone="no"?><!DOCTYPE svg PUBLIC "-//W3C//DTD SVG 1.1//EN" "http://www.w3.org/Graphics/SVG/1.1/DTD/svg11.dtd"><svg t="1548722458246" class="icon" style="" viewBox="0 0 1024 1024" version="1.1" xmlns="http://www.w3.org/2000/svg" p-id="2204" xmlns:xlink="http://www.w3.org/1999/xlink" width="200" height="200"><defs><style type="text/css"></style></defs><path d="M453.76 695.04c-3.84 0-7.68-0.64-11.52-1.92-21.12-8.32-39.68-20.48-55.68-36.48-30.72-30.72-47.36-71.68-47.36-115.2 0-43.52 16.64-84.48 47.36-115.2l231.04-231.04c63.36-63.36 167.04-63.36 230.4 0 63.36 63.36 63.36 167.04 0 230.4l-42.24 42.24c-12.8 12.8-32.64 12.8-45.44 0s-12.8-32.64 0-45.44l42.24-42.24c38.4-38.4 38.4-101.12 0-140.16-38.4-38.4-101.12-38.4-140.16 0L431.36 471.04c-18.56 18.56-28.8 43.52-28.8 69.76 0 26.24 10.24 51.2 28.8 69.76 9.6 9.6 21.12 17.28 33.92 21.76 16.64 6.4 24.96 24.96 18.56 41.6-5.12 13.44-17.28 21.12-30.08 21.12z" fill="#515151" p-id="2205"></path><path d="M317.44 887.68c-41.6 0-83.2-16-115.2-47.36-30.72-30.72-47.36-71.68-47.36-115.2 0-43.52 16.64-84.48 47.36-115.2l64-64c12.8-12.8 32.64-12.8 45.44 0s12.8 32.64 0 45.44l-64 64c-18.56 18.56-28.8 43.52-28.8 69.76 0 26.24 10.24 51.2 28.8 69.76 38.4 38.4 101.12 38.4 140.16 0l231.04-231.04c38.4-38.4 38.4-101.12 0-140.16-10.24-10.24-21.76-17.92-35.2-22.4-16.64-6.4-24.96-24.32-19.2-40.96 6.4-16.64 24.32-24.96 40.96-19.2 22.4 8.32 41.6 20.48 58.88 37.76 63.36 63.36 63.36 167.04 0 230.4l-231.04 231.04c-32.64 31.36-74.24 47.36-115.84 47.36z" fill="#515151" p-id="2206"></path></svg>